MutatorSansInstance_800-100.ufo
<glyph name="comma" format="2">
  <advance width="241"/>
  <unicode hex="002C"/>
  <outline>
    <contour>
      <point x="202" y="0" type="line"/>
      <point x="202" y="266" type="line"/>
      <point x="40" y="266" type="line"/>
      <point x="40" y="0" type="line"/>
      <point x="109" y="-14" type="line"/>
      <point x="101" y="12" type="line"/>
      <point x="79" y="-133" type="line"/>
      <point x="139" y="-135" type="line"/>
    </contour>
  </outline>
</glyph>
<glyph name="A" format="2">
  <advance width="732"/>
  <unicode hex="0041"/>
  <outline>
    <contour>
      <point x="14" y="0" type="line"/>
      <point x="221" y="0" type="line"/>
      <point x="338" y="780" type="line"/>
      <point x="158" y="780" type="line"/>
    </contour>
    <contour>
      <point x="115" y="130" type="line"/>
      <point x="570" y="130" type="line"/>
      <point x="570" y="306" type="line"/>
      <point x="115" y="306" type="line"/>
    </contour>
    <contour>
      <point x="426" y="0" type="line"/>
      <point x="718" y="0" type="line"/>
      <point x="572" y="780" type="line"/>
      <point x="298" y="780" type="line"/>
    </contour>
    <contour>
      <point x="221" y="564" type="line"/>
      <point x="463" y="564" type="line"/>
      <point x="463" y="780" type="line"/>
      <point x="221" y="780" type="line"/>
    </contour>
  </outline>
</glyph>
<glyph name="B" format="2">
  <advance width="718"/>
  <unicode hex="0042"/>
  <outline>
    <contour>
      <point x="40" y="0" type="line"/>
      <point x="304" y="0" type="line"/>
      <point x="304" y="780" type="line"/>
      <point x="40" y="780" type="line"/>
    </contour>
    <contour>
      <point x="255" y="343" type="line"/>
      <point x="366" y="343" type="line" smooth="yes"/>
      <point x="412" y="343"/>
      <point x="441" y="325"/>
      <point x="441" y="270" type="curve" smooth="yes"/>
      <point x="441" y="218"/>
      <point x="411" y="198"/>
      <point x="365" y="198" type="curve" smooth="yes"/>
      <point x="255" y="198" type="line"/>
      <point x="255" y="0" type="line"/>
      <point x="413" y="0" type="line" smooth="yes"/>
      <point x="648" y="0"/>
      <point x="701" y="91"/>
      <point x="701" y="221" type="curve" smooth="yes"/>
      <point x="701" y="339"/>
      <point x="645" y="404"/>
      <point x="546" y="419" type="curve"/>
      <point x="540" y="372" type="line"/>
      <point x="619" y="387"/>
      <point x="686" y="443"/>
      <point x="686" y="554" type="curve" smooth="yes"/>
      <point x="686" y="692"/>
      <point x="621" y="780"/>
      <point x="397" y="780" type="curve" smooth="yes"/>
      <point x="255" y="780" type="line"/>
      <point x="255" y="592" type="line"/>
      <point x="358" y="592" type="line" smooth="yes"/>
      <point x="407" y="592"/>
      <point x="434" y="572"/>
      <point x="434" y="522" type="curve" smooth="yes"/>
      <point x="434" y="466"/>
      <point x="405" y="450"/>
      <point x="358" y="450" type="curve" smooth="yes"/>
      <point x="255" y="450" type="line"/>
    </contour>
  </outline>
</glyph>
<glyph name="C" format="2">
  <advance width="818"/>
  <unicode hex="0043"/>
  <outline>
    <contour>
      <point x="539" y="354" type="line"/>
      <point x="533" y="245"/>
      <point x="497" y="208"/>
      <point x="426" y="208" type="curve" smooth="yes"/>
      <point x="409" y="208" type="line" smooth="yes"/>
      <point x="337" y="208"/>
      <point x="303" y="260"/>
      <point x="303" y="393" type="curve" smooth="yes"/>
      <point x="303" y="523"/>
      <point x="337" y="572"/>
      <point x="409" y="572" type="curve" smooth="yes"/>
      <point x="426" y="572" type="line" smooth="yes"/>
      <point x="496" y="572"/>
      <point x="532" y="538"/>
      <point x="539" y="432" type="curve"/>
      <point x="789" y="457" type="line"/>
      <point x="768" y="685"/>
      <point x="636" y="790"/>
      <point x="436" y="790" type="curve" smooth="yes"/>
      <point x="399" y="790" type="line" smooth="yes"/>
      <point x="171" y="790"/>
      <point x="28" y="666"/>
      <point x="28" y="393" type="curve" smooth="yes"/>
      <point x="28" y="117"/>
      <point x="171" y="-10"/>
      <point x="399" y="-10" type="curve" smooth="yes"/>
      <point x="436" y="-10" type="line" smooth="yes"/>
      <point x="636" y="-10"/>
      <point x="770" y="98"/>
      <point x="789" y="329" type="curve"/>
    </contour>
  </outline>
</glyph>
<glyph name="D" format="2">
  <advance width="753"/>
  <unicode hex="0044"/>
  <outline>
    <contour>
      <point x="40" y="0" type="line"/>
      <point x="289" y="0" type="line"/>
      <point x="289" y="780" type="line"/>
      <point x="40" y="780" type="line"/>
    </contour>
    <contour>
      <point x="242" y="570" type="line"/>
      <point x="336" y="570" type="line" smooth="yes"/>
      <point x="412" y="570"/>
      <point x="450" y="523"/>
      <point x="450" y="393" type="curve" smooth="yes"/>
      <point x="450" y="260"/>
      <point x="412" y="210"/>
      <point x="336" y="210" type="curve" smooth="yes"/>
      <point x="236" y="210" type="line"/>
      <point x="236" y="0" type="line"/>
      <point x="346" y="0" type="line" smooth="yes"/>
      <point x="577" y="0"/>
      <point x="724" y="122"/>
      <point x="724" y="393" type="curve" smooth="yes"/>
      <point x="724" y="661"/>
      <point x="577" y="780"/>
      <point x="346" y="780" type="curve" smooth="yes"/>
      <point x="242" y="780" type="line"/>
    </contour>
  </outline>
</glyph>
<glyph name="E" format="2">
  <advance width="619"/>
  <unicode hex="0045"/>
  <anchor x="319" y="822" name="top"/>
  <outline>
    <contour>
      <point x="47" y="0" type="line"/>
      <point x="297" y="0" type="line"/>
      <point x="297" y="780" type="line"/>
      <point x="47" y="780" type="line"/>
    </contour>
    <contour>
      <point x="123" y="557" type="line"/>
      <point x="583" y="557" type="line"/>
      <point x="583" y="780" type="line"/>
      <point x="123" y="780" type="line"/>
    </contour>
    <contour>
      <point x="123" y="0" type="line"/>
      <point x="583" y="0" type="line"/>
      <point x="583" y="223" type="line"/>
      <point x="123" y="223" type="line"/>
    </contour>
    <contour>
      <point x="123" y="319" type="line"/>
      <point x="536" y="319" type="line"/>
      <point x="536" y="462" type="line"/>
      <point x="123" y="462" type="line"/>
    </contour>
  </outline>
</glyph>
<glyph name="F" format="2">
  <advance width="595"/>
  <unicode hex="0046"/>
  <outline>
    <contour>
      <point x="40" y="0" type="line"/>
      <point x="312" y="0" type="line"/>
      <point x="312" y="780" type="line"/>
      <point x="40" y="780" type="line"/>
    </contour>
    <contour>
      <point x="123" y="571" type="line"/>
      <point x="555" y="571" type="line"/>
      <point x="555" y="780" type="line"/>
      <point x="123" y="780" type="line"/>
    </contour>
    <contour>
      <point x="123" y="279" type="line"/>
      <point x="532" y="279" type="line"/>
      <point x="532" y="456" type="line"/>
      <point x="123" y="456" type="line"/>
    </contour>
  </outline>
</glyph>
<glyph name="G" format="2">
  <advance width="829"/>
  <unicode hex="0047"/>
  <outline>
    <contour>
      <point x="408" y="305" type="line"/>
      <point x="593" y="305" type="line"/>
      <point x="593" y="216" type="line"/>
      <point x="683" y="0" type="line"/>
      <point x="790" y="0" type="line"/>
      <point x="790" y="396" type="line"/>
      <point x="408" y="396" type="line"/>
    </contour>
    <contour>
      <point x="554" y="359" type="line"/>
      <point x="548" y="246"/>
      <point x="508" y="208"/>
      <point x="427" y="208" type="curve" smooth="yes"/>
      <point x="409" y="208" type="line" smooth="yes"/>
      <point x="337" y="208"/>
      <point x="303" y="260"/>
      <point x="303" y="393" type="curve" smooth="yes"/>
      <point x="303" y="523"/>
      <point x="342" y="572"/>
      <point x="422" y="572" type="curve" smooth="yes"/>
      <point x="439" y="572" type="line" smooth="yes"/>
      <point x="513" y="572"/>
      <point x="548" y="538"/>
      <point x="554" y="432" type="curve"/>
      <point x="783" y="457" type="line"/>
      <point x="762" y="685"/>
      <point x="635" y="790"/>
      <point x="438" y="790" type="curve" smooth="yes"/>
      <point x="400" y="790" type="line" smooth="yes"/>
      <point x="173" y="790"/>
      <point x="28" y="666"/>
      <point x="28" y="393" type="curve" smooth="yes"/>
      <point x="28" y="117"/>
      <point x="171" y="-10"/>
      <point x="399" y="-10" type="curve" smooth="yes"/>
      <point x="422" y="-10" type="line" smooth="yes"/>
      <point x="620" y="-10"/>
      <point x="746" y="99"/>
      <point x="764" y="334" type="curve"/>
    </contour>
  </outline>
</glyph>
<glyph name="H" format="2">
  <advance width="754"/>
  <unicode hex="0048"/>
  <outline>
    <contour>
      <point x="40" y="0" type="line"/>
      <point x="312" y="0" type="line"/>
      <point x="312" y="780" type="line"/>
      <point x="40" y="780" type="line"/>
    </contour>
    <contour>
      <point x="136" y="276" type="line"/>
      <point x="618" y="276" type="line"/>
      <point x="618" y="491" type="line"/>
      <point x="136" y="491" type="line"/>
    </contour>
    <contour>
      <point x="443" y="0" type="line"/>
      <point x="715" y="0" type="line"/>
      <point x="715" y="780" type="line"/>
      <point x="443" y="780" type="line"/>
    </contour>
  </outline>
</glyph>
<glyph name="I" format="2">
  <advance width="561"/>
  <unicode hex="0049"/>
  <outline>
    <contour>
      <point x="145" y="0" type="line"/>
      <point x="417" y="0" type="line"/>
      <point x="417" y="780" type="line"/>
      <point x="145" y="780" type="line"/>
    </contour>
    <contour>
      <point x="40" y="550" type="line"/>
      <point x="521" y="550" type="line"/>
      <point x="521" y="780" type="line"/>
      <point x="40" y="780" type="line"/>
    </contour>
    <contour>
      <point x="40" y="0" type="line"/>
      <point x="521" y="0" type="line"/>
      <point x="521" y="230" type="line"/>
      <point x="40" y="230" type="line"/>
    </contour>
  </outline>
</glyph>
<glyph name="J" format="2">
  <advance width="631"/>
  <unicode hex="004A"/>
  <outline>
    <contour>
      <point x="208" y="-10" type="curve" smooth="yes"/>
      <point x="447" y="-10"/>
      <point x="592" y="97"/>
      <point x="592" y="329" type="curve" smooth="yes"/>
      <point x="592" y="780" type="line"/>
      <point x="317" y="780" type="line"/>
      <point x="317" y="379" type="line" smooth="yes"/>
      <point x="317" y="268"/>
      <point x="270" y="225"/>
      <point x="183" y="225" type="curve" smooth="yes"/>
      <point x="149" y="225"/>
      <point x="117" y="228"/>
      <point x="82" y="237" type="curve"/>
      <point x="40" y="14" type="line"/>
      <point x="88" y="-2"/>
      <point x="145" y="-10"/>
    </contour>
  </outline>
</glyph>
<glyph name="K" format="2">
  <advance width="794"/>
  <unicode hex="004B"/>
  <outline>
    <contour>
      <point x="40" y="0" type="line"/>
      <point x="312" y="0" type="line"/>
      <point x="312" y="780" type="line"/>
      <point x="40" y="780" type="line"/>
    </contour>
    <contour>
      <point x="275" y="316" type="line"/>
      <point x="330" y="316" type="line"/>
      <point x="473" y="0" type="line"/>
      <point x="780" y="0" type="line"/>
      <point x="567" y="500" type="line"/>
      <point x="342" y="435" type="line"/>
      <point x="275" y="435" type="line"/>
    </contour>
    <contour>
      <point x="327" y="411" type="line"/>
      <point x="528" y="321" type="line"/>
      <point x="773" y="780" type="line"/>
      <point x="486" y="780" type="line"/>
    </contour>
  </outline>
</glyph>
<glyph name="L" format="2">
  <advance width="568"/>
  <unicode hex="004C"/>
  <outline>
    <contour>
      <point x="40" y="0" type="line"/>
      <point x="312" y="0" type="line"/>
      <point x="312" y="780" type="line"/>
      <point x="40" y="780" type="line"/>
    </contour>
    <contour>
      <point x="123" y="0" type="line"/>
      <point x="545" y="0" type="line"/>
      <point x="545" y="210" type="line"/>
      <point x="123" y="210" type="line"/>
    </contour>
  </outline>
</glyph>
<glyph name="M" format="2">
  <advance width="817"/>
  <unicode hex="004D"/>
  <outline>
    <contour>
      <point x="40" y="0" type="line"/>
      <point x="253" y="0" type="line"/>
      <point x="253" y="780" type="line"/>
      <point x="40" y="780" type="line"/>
    </contour>
    <contour>
      <point x="777" y="0" type="line"/>
      <point x="777" y="780" type="line"/>
      <point x="563" y="780" type="line"/>
      <point x="563" y="0" type="line"/>
    </contour>
    <contour>
      <point x="675" y="472" type="line"/>
      <point x="563" y="780" type="line"/>
      <point x="394" y="507" type="line"/>
      <point x="422" y="507" type="line"/>
      <point x="253" y="780" type="line"/>
      <point x="142" y="472" type="line"/>
      <point x="370" y="154" type="line"/>
      <point x="447" y="154" type="line"/>
    </contour>
  </outline>
</glyph>
<glyph name="N" format="2">
  <advance width="753"/>
  <unicode hex="004E"/>
  <outline>
    <contour>
      <point x="40" y="0" type="line"/>
      <point x="252" y="0" type="line"/>
      <point x="252" y="780" type="line"/>
      <point x="40" y="780" type="line"/>
    </contour>
    <contour>
      <point x="110" y="540" type="line"/>
      <point x="501" y="0" type="line"/>
      <point x="644" y="240" type="line"/>
      <point x="252" y="780" type="line"/>
    </contour>
    <contour>
      <point x="501" y="0" type="line"/>
      <point x="714" y="0" type="line"/>
      <point x="714" y="780" type="line"/>
      <point x="501" y="780" type="line"/>
    </contour>
  </outline>
</glyph>
<glyph name="O" format="2">
  <advance width="835"/>
  <unicode hex="004F"/>
  <outline>
    <contour>
      <point x="399" y="-10" type="curve" smooth="yes"/>
      <point x="436" y="-10" type="line" smooth="yes"/>
      <point x="663" y="-10"/>
      <point x="807" y="117"/>
      <point x="807" y="393" type="curve" smooth="yes"/>
      <point x="807" y="666"/>
      <point x="663" y="790"/>
      <point x="436" y="790" type="curve" smooth="yes"/>
      <point x="399" y="790" type="line" smooth="yes"/>
      <point x="171" y="790"/>
      <point x="28" y="666"/>
      <point x="28" y="393" type="curve" smooth="yes"/>
      <point x="28" y="117"/>
      <point x="171" y="-10"/>
    </contour>
    <contour>
      <point x="409" y="208" type="line" smooth="yes"/>
      <point x="337" y="208"/>
      <point x="303" y="260"/>
      <point x="303" y="393" type="curve" smooth="yes"/>
      <point x="303" y="523"/>
      <point x="337" y="572"/>
      <point x="409" y="572" type="curve" smooth="yes"/>
      <point x="426" y="572" type="line" smooth="yes"/>
      <point x="498" y="572"/>
      <point x="533" y="523"/>
      <point x="533" y="393" type="curve" smooth="yes"/>
      <point x="533" y="260"/>
      <point x="498" y="208"/>
      <point x="426" y="208" type="curve" smooth="yes"/>
    </contour>
  </outline>
</glyph>
<glyph name="P" format="2">
  <advance width="701"/>
  <unicode hex="0050"/>
  <outline>
    <contour>
      <point x="40" y="0" type="line"/>
      <point x="312" y="0" type="line"/>
      <point x="312" y="780" type="line"/>
      <point x="40" y="780" type="line"/>
    </contour>
    <contour>
      <point x="244" y="568" type="line"/>
      <point x="353" y="568" type="line" smooth="yes"/>
      <point x="407" y="568"/>
      <point x="430" y="539"/>
      <point x="430" y="473" type="curve" smooth="yes"/>
      <point x="430" y="403"/>
      <point x="407" y="378"/>
      <point x="353" y="378" type="curve" smooth="yes"/>
      <point x="244" y="378" type="line"/>
      <point x="244" y="165" type="line"/>
      <point x="365" y="165" type="line" smooth="yes"/>
      <point x="599" y="165"/>
      <point x="679" y="272"/>
      <point x="679" y="473" type="curve" smooth="yes"/>
      <point x="679" y="673"/>
      <point x="599" y="780"/>
      <point x="366" y="780" type="curve" smooth="yes"/>
      <point x="244" y="780" type="line"/>
    </contour>
  </outline>
</glyph>
<glyph name="R" format="2">
  <advance width="712"/>
  <unicode hex="0052"/>
  <outline>
    <contour>
      <point x="416" y="0" type="line"/>
      <point x="690" y="0" type="line"/>
      <point x="643" y="184" type="line" smooth="yes"/>
      <point x="625" y="239"/>
      <point x="590" y="275"/>
      <point x="528" y="274" type="curve"/>
      <point x="364" y="274" type="line"/>
    </contour>
    <contour>
      <point x="40" y="0" type="line"/>
      <point x="312" y="0" type="line"/>
      <point x="312" y="780" type="line"/>
      <point x="40" y="780" type="line"/>
    </contour>
    <contour>
      <point x="244" y="568" type="line"/>
      <point x="361" y="568" type="line" smooth="yes"/>
      <point x="414" y="568"/>
      <point x="437" y="539"/>
      <point x="437" y="473" type="curve" smooth="yes"/>
      <point x="437" y="403"/>
      <point x="414" y="378"/>
      <point x="361" y="378" type="curve" smooth="yes"/>
      <point x="244" y="378" type="line"/>
      <point x="244" y="213" type="line"/>
      <point x="380" y="213" type="line" smooth="yes"/>
      <point x="599" y="213"/>
      <point x="686" y="313"/>
      <point x="686" y="497" type="curve" smooth="yes"/>
      <point x="686" y="682"/>
      <point x="592" y="780"/>
      <point x="372" y="780" type="curve" smooth="yes"/>
      <point x="244" y="780" type="line"/>
    </contour>
  </outline>
</glyph>
<glyph name="S" format="2">
  <advance width="695"/>
  <unicode hex="0053"/>
  <outline>
    <contour>
      <point x="668" y="234" type="curve" smooth="yes"/>
      <point x="668" y="419"/>
      <point x="569" y="476"/>
      <point x="415" y="497" type="curve" smooth="yes"/>
      <point x="349" y="507" type="line" smooth="yes"/>
      <point x="268" y="521"/>
      <point x="257" y="531"/>
      <point x="257" y="552" type="curve" smooth="yes"/>
      <point x="257" y="574"/>
      <point x="278" y="588"/>
      <point x="341" y="588" type="curve" smooth="yes"/>
      <point x="397" y="588" type="line" smooth="yes"/>
      <point x="481" y="588"/>
      <point x="561" y="578"/>
      <point x="622" y="565" type="curve"/>
      <point x="654" y="758" type="line"/>
      <point x="591" y="774"/>
      <point x="489" y="790"/>
      <point x="424" y="790" type="curve" smooth="yes"/>
      <point x="380" y="790" type="line" smooth="yes"/>
      <point x="148" y="790"/>
      <point x="37" y="694"/>
      <point x="37" y="531" type="curve" smooth="yes"/>
      <point x="37" y="366"/>
      <point x="149" y="305"/>
      <point x="291" y="283" type="curve" smooth="yes"/>
      <point x="355" y="272" type="line" smooth="yes"/>
      <point x="431" y="256"/>
      <point x="447" y="251"/>
      <point x="447" y="227" type="curve" smooth="yes"/>
      <point x="447" y="207"/>
      <point x="425" y="193"/>
      <point x="361" y="193" type="curve" smooth="yes"/>
      <point x="307" y="193" type="line" smooth="yes"/>
      <point x="212" y="193"/>
      <point x="124" y="202"/>
      <point x="55" y="218" type="curve"/>
      <point x="23" y="23" type="line"/>
      <point x="94" y="6"/>
      <point x="208" y="-10"/>
      <point x="280" y="-10" type="curve" smooth="yes"/>
      <point x="325" y="-10" type="line" smooth="yes"/>
      <point x="592" y="-10"/>
      <point x="669" y="99"/>
    </contour>
  </outline>
</glyph>
<glyph name="T" format="2">
  <advance width="649"/>
  <unicode hex="0054"/>
  <outline>
    <contour>
      <point x="189" y="0" type="line"/>
      <point x="461" y="0" type="line"/>
      <point x="461" y="780" type="line"/>
      <point x="189" y="780" type="line"/>
    </contour>
    <contour>
      <point x="22" y="568" type="line"/>
      <point x="627" y="568" type="line"/>
      <point x="627" y="780" type="line"/>
      <point x="22" y="780" type="line"/>
    </contour>
  </outline>
</glyph>
<glyph name="U" format="2">
  <advance width="757"/>
  <unicode hex="0055"/>
  <outline>
    <contour>
      <point x="378" y="-10" type="curve" smooth="yes"/>
      <point x="612" y="-10"/>
      <point x="715" y="95"/>
      <point x="715" y="321" type="curve" smooth="yes"/>
      <point x="715" y="780" type="line"/>
      <point x="443" y="780" type="line"/>
      <point x="443" y="285" type="line" smooth="yes"/>
      <point x="443" y="230"/>
      <point x="421" y="211"/>
      <point x="378" y="211" type="curve" smooth="yes"/>
      <point x="337" y="211"/>
      <point x="315" y="230"/>
      <point x="315" y="285" type="curve" smooth="yes"/>
      <point x="315" y="780" type="line"/>
      <point x="42" y="780" type="line"/>
      <point x="42" y="321" type="line" smooth="yes"/>
      <point x="42" y="95"/>
      <point x="143" y="-10"/>
    </contour>
  </outline>
</glyph>
<glyph name="V" format="2">
  <advance width="734"/>
  <unicode hex="0056"/>
  <outline>
    <contour>
      <point x="720" y="780" type="line"/>
      <point x="506" y="780" type="line"/>
      <point x="385" y="0" type="line"/>
      <point x="573" y="0" type="line"/>
    </contour>
    <contour>
      <point x="305" y="780" type="line"/>
      <point x="13" y="780" type="line"/>
      <point x="161" y="0" type="line"/>
      <point x="436" y="0" type="line"/>
    </contour>
    <contour>
      <point x="512" y="216" type="line"/>
      <point x="270" y="216" type="line"/>
      <point x="270" y="0" type="line"/>
      <point x="512" y="0" type="line"/>
    </contour>
  </outline>
</glyph>
<glyph name="W" format="2">
  <advance width="869"/>
  <unicode hex="0057"/>
  <outline>
    <contour>
      <point x="856" y="780" type="line"/>
      <point x="630" y="780" type="line"/>
      <point x="568" y="228" type="line"/>
      <point x="601" y="228" type="line"/>
      <point x="536" y="780" type="line"/>
      <point x="359" y="780" type="line"/>
      <point x="299" y="228" type="line"/>
      <point x="333" y="228" type="line"/>
      <point x="265" y="780" type="line"/>
      <point x="14" y="780" type="line"/>
      <point x="125" y="0" type="line"/>
      <point x="377" y="0" type="line"/>
      <point x="437" y="460" type="line"/>
      <point x="400" y="460" type="line"/>
      <point x="471" y="0" type="line"/>
      <point x="747" y="0" type="line"/>
    </contour>
  </outline>
</glyph>
<glyph name="X" format="2">
  <advance width="735"/>
  <unicode hex="0058"/>
  <outline>
    <contour>
      <point x="400" y="0" type="line"/>
      <point x="722" y="0" type="line"/>
      <point x="474" y="452" type="line"/>
      <point x="337" y="780" type="line"/>
      <point x="15" y="780" type="line"/>
      <point x="258" y="350" type="line"/>
    </contour>
    <contour>
      <point x="13" y="0" type="line"/>
      <point x="223" y="0" type="line"/>
      <point x="334" y="317" type="line"/>
      <point x="515" y="342" type="line"/>
      <point x="720" y="780" type="line"/>
      <point x="510" y="780" type="line"/>
      <point x="396" y="501" type="line"/>
      <point x="218" y="464" type="line"/>
    </contour>
  </outline>
</glyph>
<glyph name="Y" format="2">
  <advance width="725"/>
  <unicode hex="0059"/>
  <outline>
    <contour>
      <point x="712" y="780" type="line"/>
      <point x="510" y="780" type="line"/>
      <point x="327" y="203" type="line"/>
      <point x="498" y="202" type="line"/>
    </contour>
    <contour>
      <point x="308" y="780" type="line"/>
      <point x="13" y="780" type="line"/>
      <point x="227" y="202" type="line"/>
      <point x="474" y="203" type="line"/>
    </contour>
    <contour>
      <point x="498" y="275" type="line"/>
      <point x="226" y="275" type="line"/>
      <point x="226" y="0" type="line"/>
      <point x="498" y="0" type="line"/>
    </contour>
  </outline>
</glyph>
<glyph name="Z" format="2">
  <advance width="666"/>
  <unicode hex="005A"/>
  <outline>
    <contour>
      <point x="40" y="210" type="line"/>
      <point x="340" y="185" type="line"/>
      <point x="627" y="570" type="line"/>
      <point x="326" y="595" type="line"/>
    </contour>
    <contour>
      <point x="40" y="570" type="line"/>
      <point x="627" y="570" type="line"/>
      <point x="627" y="780" type="line"/>
      <point x="40" y="780" type="line"/>
    </contour>
    <contour>
      <point x="40" y="0" type="line"/>
      <point x="627" y="0" type="line"/>
      <point x="627" y="210" type="line"/>
      <point x="40" y="210" type="line"/>
    </contour>
  </outline>
</glyph>
